<svg width="225" height="94" viewBox="0 0 225 94" fill="none" xmlns="http://www.w3.org/2000/svg">
<path fill-rule="evenodd" clip-rule="evenodd" d="M124.404 5.47541C84.2465 5.47541 46.1751 15.5317 24.165 30.0944C11.0328 38.7835 5.38987 48.1271 8.27139 56.4062C12.6933 69.1107 36.7467 79.116 76.0006 84.5814C167.62 97.3352 208.521 76.8548 216.243 53.4324C221.105 38.6902 212.406 23.2776 195.855 14.8824C195.835 15.083 195.774 15.2853 195.658 15.4807C195.146 16.364 193.814 16.7652 192.664 16.3605C170.973 8.75888 147.348 5.47541 124.404 5.47541ZM127.483 92C112.187 92 94.8119 90.7771 75.1986 88.0461C22.5543 80.7155 7.36744 67.2948 3.8992 57.3265C0.532897 47.6591 6.68557 37.0362 21.2268 27.4163C54.6678 5.2889 124.001 -6.78217 183.056 9.5648C182.87 9.19352 182.843 8.77121 183.018 8.36473C183.419 7.44445 184.708 6.95527 185.888 7.25617C211.837 14.0237 227.099 34.6923 220.634 54.3052C214.112 74.0905 186.026 91.9982 127.483 92Z" fill="#7748EF"/>
<path d="M24.165 30.0944L23.0614 28.4264L23.0614 28.4265L24.165 30.0944ZM8.27139 56.4062L6.38252 57.0636L6.38253 57.0636L8.27139 56.4062ZM76.0006 84.5814L75.7248 86.5623L75.7249 86.5623L76.0006 84.5814ZM216.243 53.4324L214.344 52.806L214.344 52.8061L216.243 53.4324ZM195.855 14.8824L196.76 13.0987L194.16 11.78L193.866 14.6802L195.855 14.8824ZM195.658 15.4807L193.937 14.4624L193.932 14.4701L193.928 14.4778L195.658 15.4807ZM192.664 16.3605L193.327 14.4738L193.325 14.473L192.664 16.3605ZM75.1986 88.0461L74.9228 90.027L74.9228 90.027L75.1986 88.0461ZM3.8992 57.3265L5.78813 56.6693L5.78796 56.6688L3.8992 57.3265ZM21.2268 27.4163L22.3303 29.0843L22.3304 29.0842L21.2268 27.4163ZM183.056 9.5648L182.523 11.4923L186.857 12.6922L184.845 8.66992L183.056 9.5648ZM183.018 8.36473L181.184 7.56586L181.18 7.57602L183.018 8.36473ZM185.888 7.25617L186.393 5.32087L186.382 5.31816L185.888 7.25617ZM220.634 54.3052L218.734 53.679V53.6791L220.634 54.3052ZM124.404 3.47541C83.9938 3.47541 45.4987 13.5811 23.0614 28.4264L25.2686 31.7624C46.8515 17.4823 84.4991 7.47541 124.404 7.47541V3.47541ZM23.0614 28.4265C16.3562 32.8631 11.4018 37.5678 8.50113 42.37C5.57457 47.2151 4.70392 52.2407 6.38252 57.0636L10.1602 55.7487C8.95733 52.2926 9.46741 48.5068 11.925 44.4381C14.4085 40.3264 18.8417 36.0148 25.2686 31.7623L23.0614 28.4265ZM6.38253 57.0636C8.89189 64.2732 16.7327 70.2408 28.3059 75.055C39.9984 79.919 56.0114 83.8175 75.7248 86.5623L76.2764 82.6005C56.7359 79.8798 41.0953 76.043 29.8422 71.3618C18.4697 66.631 12.0728 61.2437 10.1602 55.7487L6.38253 57.0636ZM75.7249 86.5623C121.691 92.9609 155.125 91.0536 178.132 84.4964C201.106 77.9482 213.991 66.651 218.143 54.0586L214.344 52.8061C210.773 63.6363 199.346 74.2905 177.035 80.6496C154.756 86.9997 121.93 88.9557 76.2764 82.6005L75.7249 86.5623ZM218.143 54.0587C223.42 38.0552 213.851 21.7678 196.76 13.0987L194.951 16.666C210.961 24.7874 218.79 39.3252 214.344 52.806L218.143 54.0587ZM193.866 14.6802C193.873 14.6082 193.897 14.5297 193.937 14.4624L197.38 16.4989C197.651 16.041 197.797 15.5577 197.845 15.0846L193.866 14.6802ZM193.928 14.4778C193.983 14.3824 193.999 14.4365 193.833 14.4859C193.678 14.5318 193.488 14.5305 193.327 14.4738L192 18.2472C193.834 18.8922 196.285 18.3877 197.389 16.4836L193.928 14.4778ZM193.325 14.473C171.384 6.78366 147.529 3.47541 124.404 3.47541V7.47541C147.166 7.47541 170.562 10.7341 192.002 18.2479L193.325 14.473ZM127.483 90C112.292 90 95.0101 88.7854 75.4744 86.0652L74.9228 90.027C94.6138 92.7688 112.082 94 127.483 94V90ZM75.4744 86.0652C49.2647 82.4156 32.5509 77.2702 22.0171 71.894C11.4971 66.5249 7.29945 61.013 5.78813 56.6693L2.01026 57.9837C3.96719 63.6082 9.09709 69.7908 20.1987 75.4568C31.2864 81.1157 48.4882 86.346 74.9228 90.027L75.4744 86.0652ZM5.78796 56.6688C2.91408 48.4155 7.92189 38.6163 22.3303 29.0843L20.1233 25.7482C5.44925 35.456 -1.84829 46.9026 2.01043 57.9842L5.78796 56.6688ZM22.3304 29.0842C38.7151 18.2427 64.0858 9.76205 92.7929 6.04611C121.472 2.3338 153.295 3.40189 182.523 11.4923L183.59 7.63728C153.762 -0.619259 121.391 -1.68912 92.2794 2.0792C63.1958 5.84389 37.1795 14.4624 20.1232 25.7483L22.3304 29.0842ZM184.845 8.66992C184.871 8.72224 184.896 8.79996 184.9 8.89702C184.904 8.99648 184.884 9.08613 184.856 9.15344L181.18 7.57602C180.76 8.55353 180.833 9.59167 181.268 10.4597L184.845 8.66992ZM184.851 9.16359C184.787 9.31065 184.726 9.27776 184.878 9.21949C185.018 9.16577 185.212 9.14779 185.394 9.19417L186.382 5.31816C185.384 5.06364 184.343 5.13981 183.443 5.48552C182.555 5.82668 181.649 6.49853 181.184 7.56587L184.851 9.16359ZM185.383 9.19143C210.766 15.8111 224.682 35.6368 218.734 53.679L222.533 54.9313C229.516 33.7479 212.909 12.2363 186.393 5.3209L185.383 9.19143ZM218.734 53.6791C215.695 62.8983 207.54 71.9625 192.732 78.7535C177.921 85.5466 156.572 89.9991 127.483 90L127.483 94C156.937 93.9991 178.903 89.4969 194.4 82.3893C209.902 75.2797 219.05 65.4973 222.533 54.9313L218.734 53.6791Z" fill="#7748EF"/>
</svg>
