<svg width="33" height="32" viewBox="0 0 33 32" fill="none" xmlns="http://www.w3.org/2000/svg">
<path d="M11.373 2.6665H22.573C26.8397 2.6665 30.3063 6.13317 30.3063 10.3998V21.5998C30.3063 23.6508 29.4916 25.6178 28.0413 27.0681C26.591 28.5184 24.624 29.3332 22.573 29.3332H11.373C7.10632 29.3332 3.63965 25.8665 3.63965 21.5998V10.3998C3.63965 8.34883 4.45441 6.38183 5.90469 4.93155C7.35497 3.48126 9.32197 2.6665 11.373 2.6665ZM11.1063 5.33317C9.83328 5.33317 8.61238 5.83888 7.7122 6.73906C6.81203 7.63923 6.30632 8.86013 6.30632 10.1332V21.8665C6.30632 24.5198 8.45298 26.6665 11.1063 26.6665H22.8396C24.1127 26.6665 25.3336 26.1608 26.2338 25.2606C27.1339 24.3604 27.6396 23.1395 27.6396 21.8665V10.1332C27.6396 7.47984 25.493 5.33317 22.8396 5.33317H11.1063ZM23.973 7.33317C24.415 7.33317 24.8389 7.50877 25.1515 7.82133C25.4641 8.13389 25.6396 8.55781 25.6396 8.99984C25.6396 9.44186 25.4641 9.86579 25.1515 10.1783C24.8389 10.4909 24.415 10.6665 23.973 10.6665C23.531 10.6665 23.107 10.4909 22.7945 10.1783C22.4819 9.86579 22.3063 9.44186 22.3063 8.99984C22.3063 8.55781 22.4819 8.13389 22.7945 7.82133C23.107 7.50877 23.531 7.33317 23.973 7.33317ZM16.973 9.33317C18.7411 9.33317 20.4368 10.0355 21.687 11.2858C22.9373 12.536 23.6396 14.2317 23.6396 15.9998C23.6396 17.7679 22.9373 19.4636 21.687 20.7139C20.4368 21.9641 18.7411 22.6665 16.973 22.6665C15.2049 22.6665 13.5092 21.9641 12.2589 20.7139C11.0087 19.4636 10.3063 17.7679 10.3063 15.9998C10.3063 14.2317 11.0087 12.536 12.2589 11.2858C13.5092 10.0355 15.2049 9.33317 16.973 9.33317ZM16.973 11.9998C15.9121 11.9998 14.8947 12.4213 14.1446 13.1714C13.3944 13.9216 12.973 14.939 12.973 15.9998C12.973 17.0607 13.3944 18.0781 14.1446 18.8283C14.8947 19.5784 15.9121 19.9998 16.973 19.9998C18.0338 19.9998 19.0513 19.5784 19.8014 18.8283C20.5516 18.0781 20.973 17.0607 20.973 15.9998C20.973 14.939 20.5516 13.9216 19.8014 13.1714C19.0513 12.4213 18.0338 11.9998 16.973 11.9998Z" fill="#F2F5F9"/>
</svg>
