<svg width="33" height="32" viewBox="0 0 33 32" fill="none" xmlns="http://www.w3.org/2000/svg">
<path d="M30.9197 8.00016C29.893 8.46683 28.7864 8.7735 27.6397 8.92016C28.813 8.2135 29.7197 7.0935 30.1464 5.74683C29.0397 6.4135 27.813 6.88016 26.5197 7.14683C25.4664 6.00016 23.9864 5.3335 22.3064 5.3335C19.173 5.3335 16.613 7.8935 16.613 11.0535C16.613 11.5068 16.6664 11.9468 16.7597 12.3602C12.013 12.1202 7.78637 9.84016 4.97303 6.38683C4.4797 7.22683 4.1997 8.2135 4.1997 9.2535C4.1997 11.2402 5.1997 13.0002 6.74637 14.0002C5.7997 14.0002 4.9197 13.7335 4.14637 13.3335C4.14637 13.3335 4.14637 13.3335 4.14637 13.3735C4.14637 16.1468 6.1197 18.4668 8.73303 18.9868C8.25303 19.1202 7.74637 19.1868 7.22637 19.1868C6.86637 19.1868 6.50637 19.1468 6.1597 19.0802C6.8797 21.3335 8.97303 23.0135 11.493 23.0535C9.54637 24.6002 7.0797 25.5068 4.38637 25.5068C3.93303 25.5068 3.4797 25.4802 3.02637 25.4268C5.5597 27.0535 8.57303 28.0002 11.7997 28.0002C22.3064 28.0002 28.0797 19.2802 28.0797 11.7202C28.0797 11.4668 28.0797 11.2268 28.0664 10.9735C29.1864 10.1735 30.1464 9.16016 30.9197 8.00016Z" fill="#F2F5F9"/>
</svg>
