<svg width="28" height="29" viewBox="0 0 28 29" fill="none" xmlns="http://www.w3.org/2000/svg">
<path d="M13.6667 0.9375C6.1745 0.9375 0.104187 7.0625 0.104187 14.5C0.104187 21.9922 6.1745 28.0625 13.6667 28.0625C21.1042 28.0625 27.2292 21.9922 27.2292 14.5C27.2292 7.0625 21.1042 0.9375 13.6667 0.9375ZM13.6667 3.5625C19.6823 3.5625 24.6042 8.48438 24.6042 14.5C24.6042 20.5703 19.6823 25.4375 13.6667 25.4375C7.59637 25.4375 2.72919 20.5703 2.72919 14.5C2.72919 8.48438 7.59637 3.5625 13.6667 3.5625ZM21.3229 10.7266L20.0651 9.46875C19.8464 9.19531 19.4089 9.19531 19.1354 9.46875L11.4245 17.125L8.14325 13.8438C7.86981 13.5703 7.487 13.5703 7.21356 13.8438L5.95575 15.0469C5.737 15.3203 5.737 15.7578 5.95575 15.9766L10.9323 21.0078C11.2057 21.2812 11.5886 21.2812 11.862 21.0078L21.3229 11.6562C21.5417 11.3828 21.5417 10.9453 21.3229 10.7266Z" fill="#00BFF8"/>
</svg>
