<svg width="28" height="29" viewBox="0 0 28 29" fill="none" xmlns="http://www.w3.org/2000/svg">
<path d="M14.3333 0.9375C6.84116 0.9375 0.770844 7.0625 0.770844 14.5C0.770844 21.9922 6.84116 28.0625 14.3333 28.0625C21.7708 28.0625 27.8958 21.9922 27.8958 14.5C27.8958 7.0625 21.7708 0.9375 14.3333 0.9375ZM14.3333 3.5625C20.349 3.5625 25.2708 8.48438 25.2708 14.5C25.2708 20.5703 20.349 25.4375 14.3333 25.4375C8.26303 25.4375 3.39584 20.5703 3.39584 14.5C3.39584 8.48438 8.26303 3.5625 14.3333 3.5625ZM21.9896 10.7266L20.7318 9.46875C20.513 9.19531 20.0755 9.19531 19.8021 9.46875L12.0912 17.125L8.80991 13.8438C8.53647 13.5703 8.15366 13.5703 7.88022 13.8438L6.62241 15.0469C6.40366 15.3203 6.40366 15.7578 6.62241 15.9766L11.599 21.0078C11.8724 21.2812 12.2552 21.2812 12.5287 21.0078L21.9896 11.6562C22.2083 11.3828 22.2083 10.9453 21.9896 10.7266Z" fill="#AC43FF"/>
</svg>
