<svg width="52" height="46" viewBox="0 0 52 46" fill="none" xmlns="http://www.w3.org/2000/svg">
<path d="M7.64111 18.1847C6.58036 19.3623 5.87524 20.9302 5.96651 21.9662C5.97528 22.0658 5.9823 22.1455 6.00925 22.2235C6.27218 23.3849 6.88619 23.9733 8.77639 24.6902C10.4205 25.3484 10.7586 25.5395 11.1124 25.9099C11.2964 26.1747 11.3989 26.4267 11.42 26.6658C11.4428 26.9248 11.3859 27.1908 11.2511 27.4838C10.9797 28.0498 10.4336 28.4593 10.055 28.4926C9.87571 28.5084 9.74915 28.4393 9.71343 28.2617C9.66429 27.7039 9.17272 27.3657 8.36878 27.3562C8.26741 27.3451 8.1678 27.3538 8.08811 27.3609C7.49042 27.4135 7.27241 27.6737 7.32155 28.2315C7.35666 28.6299 8.09537 29.9502 9.18989 30.2955C9.64575 30.4561 10.1127 30.5154 10.5909 30.4732C10.9097 30.4451 11.2448 30.3755 11.5748 30.246C12.5211 29.8213 14.0588 29.0434 13.878 26.9913C13.8412 26.573 13.741 26.12 13.5559 25.6143C12.9068 24.6274 12.2219 24.1457 10.245 23.3561C9.49266 23.0209 8.92842 22.7694 8.83468 22.617C8.68118 22.4699 8.60562 22.2959 8.58631 22.0768C8.53366 21.4791 8.93633 20.5803 9.81076 19.3387C10.3195 18.7318 10.8879 18.1195 11.0473 18.1055C11.1469 18.0967 11.192 18.1529 11.2061 18.3123C11.2184 18.4518 11.2142 18.6328 11.1972 18.8954C11.1837 19.1977 11.1995 19.377 11.21 19.4966C11.2293 19.7157 11.2727 19.752 11.4408 19.8376C11.63 20.1623 12.1656 20.3159 12.6238 20.2755C13.082 20.2351 13.4647 20.0207 13.4859 19.5771C13.5462 19.351 13.5615 19.0685 13.5369 18.7896C13.5106 18.4908 13.421 18.1574 13.2716 17.8292C12.9413 16.8143 12.0173 16.3536 10.7551 16.3845C10.4364 16.4125 10.0379 16.4476 9.88556 16.5414C9.02299 16.778 8.51316 17.1441 7.64111 18.1847ZM20.1966 16.5767C20.4994 17.0519 20.7799 18.4125 20.9186 19.9864C21.0362 21.3213 21.0664 22.8043 20.9292 23.9809C20.7965 25.4382 20.13 27.4444 19.7984 27.5539L19.7784 27.5557C19.5194 27.5785 18.9771 25.98 18.658 24.181C18.6117 23.8839 18.5819 23.5452 18.5485 23.1667C18.445 21.9913 18.3965 20.5299 18.3915 19.1048C18.4185 18.5001 18.3945 18.0003 18.3612 17.6218C18.3173 17.1237 18.2295 16.8102 18.0777 16.683C17.8176 16.465 17.3254 16.3477 16.8871 16.3863C16.7277 16.4004 16.59 16.4326 16.4541 16.4847C15.7995 16.8034 15.6023 19.3505 15.8989 22.7175C16.1218 25.2477 16.5171 26.9998 17.2183 28.1226C17.5411 28.5961 18.2312 29.8202 20.0641 29.6587C20.4426 29.6254 20.8557 29.5288 21.3234 29.3671C22.1233 28.875 23.6147 27.8 23.6657 23.1375C23.6892 22.493 23.6519 21.6129 23.5729 20.7163C23.4114 18.8834 23.0747 16.8853 22.8064 16.3467C22.7221 16.0731 22.3167 15.3458 21.221 15.4424C20.9819 15.4634 20.6848 15.5097 20.3748 15.6374C20.1715 15.836 20.0695 16.0458 20.0888 16.2649C20.0976 16.3645 20.1263 16.4624 20.1966 16.5767ZM26.6838 15.1418L26.2056 15.1839C26.1242 15.171 26.0445 15.1781 25.9847 15.1833C25.666 15.2114 25.5605 15.3813 25.5235 15.6456C25.5305 15.7253 25.2012 16.3165 25.2152 16.4758C25.2292 16.6352 25.4476 18.2021 25.6143 20.0948C25.8583 22.8641 26.0082 23.6539 26.1985 24.9021C26.7191 27.1651 27.0488 28.4009 27.3089 28.619C27.374 28.6735 27.6862 29.0274 28.3437 28.9695C28.5827 28.9484 28.8763 28.8623 29.2227 28.6913C29.3082 28.5231 29.32 28.2009 29.2814 27.7626C29.148 26.2484 28.3878 23.5447 28.365 23.2857C28.3579 23.206 30.6439 22.2618 31.7845 19.7118C31.9639 19.0134 32.0437 18.3237 31.9875 17.6862C31.8875 16.5506 31.3614 15.5931 30.2511 15.0685C29.6939 14.8967 29.0242 14.8152 28.3468 14.8748C28.0081 14.9047 27.653 14.9761 27.3213 15.0856C27.1655 15.1395 27.0277 15.1717 26.9281 15.1805C26.8086 15.1911 26.7271 15.1781 26.6838 15.1418ZM29.8634 17.7328C29.7014 19.9957 28.0834 21.0016 28.0834 21.0016C28.0037 21.0086 27.7205 18.7046 27.6169 17.5291C27.6194 16.6455 27.5994 16.6473 28.0706 16.5255C28.4222 16.4142 28.6976 16.3498 28.9167 16.3304C29.1359 16.3111 29.2988 16.3369 29.4253 16.4061C29.6421 16.5878 29.8114 16.9142 29.8518 17.3724C29.8623 17.4919 29.8728 17.6115 29.8634 17.7328ZM34.6203 15.2457C34.4515 15.3811 34.3331 15.6324 34.3454 15.7719C34.3489 15.8117 34.3723 15.8498 34.3741 15.8697C34.4174 15.9061 34.4426 15.9641 34.4461 16.0039C34.4514 16.0637 34.4367 16.1252 34.4004 16.1686C34.3634 16.4329 34.2539 20.6588 34.4891 23.3284C34.5189 23.6671 34.5487 24.0058 34.5932 24.283C34.7285 25.1344 35.2777 28.1779 37.7481 27.9603C38.306 27.9112 38.9494 27.6939 39.6948 27.2668C40.1935 27.002 40.9436 26.173 41.1241 25.7154C41.2079 25.5273 41.2338 25.3644 41.2215 25.2249C41.1899 24.8663 40.928 24.6284 40.4358 24.5111C40.2313 24.4689 40.0684 24.4431 39.909 24.4571C39.5305 24.4905 39.2275 24.6979 38.8355 25.0336C38.2254 25.6294 37.9875 25.8913 37.8281 25.9054C37.7085 25.9159 37.6547 25.76 37.5322 25.5098C37.2674 25.0111 37.1351 24.4204 36.9448 23.1723C36.8465 22.0566 36.8483 22.0766 37.2198 21.9635C38.608 21.5401 39.9839 20.9771 40.0971 20.666C40.1299 20.5828 40.1445 20.5213 40.1375 20.4416C40.0971 19.9834 39.5007 19.5942 38.7237 19.6627C38.5245 19.6802 37.1831 20.1799 36.9042 20.2044L36.8445 20.2097C36.7648 20.2167 36.7525 20.0773 36.6735 19.1807C36.7005 18.576 36.4847 16.1255 36.5643 16.1185C36.5643 16.1185 38.9815 15.5241 41.0143 15.1241C41.1121 15.0954 41.2739 14.8804 41.2493 14.6015C41.2335 14.4222 41.1345 14.2101 40.8579 14.0337C40.5398 13.8408 40.272 13.764 39.7939 13.8062C39.4751 13.8342 39.0602 13.9109 38.4678 14.0234C36.721 14.4784 35.0392 14.988 34.6203 15.2457ZM43.5178 17.3731C43.6723 19.1263 44.0065 22.0081 44.1679 23.841C44.5618 27.4002 44.5548 27.3205 45.2421 27.6013C45.5081 27.6581 45.7706 27.6752 46.0097 27.6541C46.4679 27.6137 46.8523 27.4193 46.9637 27.0882C46.9549 26.9886 46.9649 26.6464 46.9088 26.0089C46.8789 25.6702 46.8438 25.2717 46.7601 24.7771C46.6302 23.3029 46.5863 22.8048 46.666 22.7978C46.7527 22.8704 47.0556 23.3457 47.3456 23.9024C47.8289 24.6027 48.0111 24.8476 48.6398 25.3745C49.095 25.756 49.6048 26.0725 50.1427 26.0251C50.4415 25.9988 50.7497 25.8512 51.0604 25.5026C51.075 25.441 51.0897 25.3795 51.0844 25.3198C51.0669 25.1205 50.9227 24.8521 50.4857 24.4489C50.2255 24.2309 49.3538 23.2235 48.6654 22.0193C48.3087 21.3882 47.8124 20.7693 47.7187 20.617C47.6467 20.4828 47.5998 20.4066 47.5945 20.3468C47.5858 20.2472 47.6783 20.1587 47.8999 19.9385C48.0452 19.765 49.9081 18.577 49.8939 15.9079C49.905 15.8066 49.898 15.7269 49.891 15.6472C49.8032 14.651 49.2308 14.0791 48.3537 13.6945C48.0209 13.5632 47.3511 13.4817 46.6339 13.5449C46.2554 13.5782 45.8803 13.6514 45.5305 13.7826C45.3565 13.8582 45.2188 13.8904 45.1192 13.8992C44.9598 13.9132 44.8748 13.8605 44.7664 13.7696C44.6615 13.7186 44.3322 13.6272 43.9736 13.6588C43.7744 13.6763 43.5588 13.7355 43.3718 13.8925C43.2464 14.0642 43.1901 14.1093 43.2656 14.966C43.3077 15.4441 43.3944 16.1994 43.5178 17.3731ZM46.7394 17.9326L46.1398 18.6479C46.0601 18.655 45.6474 16.021 45.6263 15.7819C45.5976 15.6841 45.5707 15.6061 45.5672 15.5663C45.5549 15.4268 45.6528 15.3981 45.9211 15.254C46.193 15.1498 46.5411 14.9986 46.8798 14.9688C47.1388 14.946 47.3849 15.0046 47.5618 15.1898C47.6339 15.324 47.6679 15.4816 47.6819 15.641C47.7398 16.2985 47.4133 17.1504 46.7394 17.9326Z" fill="#7748EF"/>
<path fill-rule="evenodd" clip-rule="evenodd" d="M34.7486 33.0987C35.3733 33.3676 35.6666 34.1035 35.4035 34.7423C34.3103 37.397 33.1904 40.0331 32.0714 42.667C32.0243 42.7778 31.9772 42.8887 31.9301 42.9995C31.9343 42.9897 31.9209 43.0282 31.8829 43.1379C31.8652 43.1888 31.8422 43.255 31.8132 43.3389C31.7367 43.5595 31.637 43.8462 31.5342 44.1291C31.4333 44.4065 31.3209 44.7036 31.2193 44.9376C31.1715 45.0478 31.1085 45.1851 31.0367 45.3077C31.0054 45.3612 30.9375 45.4733 30.8344 45.5855C30.784 45.6402 30.6805 45.745 30.5239 45.835C30.3685 45.9244 30.0499 46.0602 29.6469 45.9707C28.8777 45.7997 28.5416 45.1659 28.4216 44.9129C28.358 44.7787 28.3049 44.6397 28.272 44.5533C28.2689 44.5454 28.2661 44.5379 28.2634 44.5308C28.2223 44.4236 28.2076 44.3897 28.2001 44.375C27.9206 43.8281 27.6532 43.2784 27.3931 42.7319C26.7153 41.3077 25.7776 39.2622 25.0449 37.6638C24.8918 37.3298 24.7476 37.0153 24.6167 36.7301C24.3286 36.1027 24.5924 35.3553 25.2061 35.0607C25.8197 34.7662 26.5507 35.036 26.8388 35.6634C26.9715 35.9524 27.117 36.2699 27.2711 36.606C28.0042 38.2053 28.9314 40.2279 29.6005 41.6336C29.6416 41.7201 29.6828 41.8063 29.7241 41.8924C29.7554 41.8187 29.7867 41.745 29.818 41.6713C30.9384 39.034 32.0533 36.4097 33.141 33.7683C33.4041 33.1295 34.1238 32.8297 34.7486 33.0987ZM30.6376 43.8319C30.6376 43.8319 30.6368 43.8306 30.6354 43.8278C30.6369 43.8304 30.6376 43.8319 30.6376 43.8319Z" fill="#7748EF"/>
</svg>
