<svg width="29" height="29" viewBox="0 0 29 29" fill="none" xmlns="http://www.w3.org/2000/svg">
<path d="M20.4037 6.1875C19.2005 6.1875 18.2162 7.17188 18.2162 8.375C18.2162 9.63281 19.2005 10.5625 20.4037 10.5625C21.6615 10.5625 22.5912 9.63281 22.5912 8.375C22.5912 7.17188 21.6615 6.24219 20.4037 6.1875ZM27.9505 1.59375C27.8412 1.26562 27.5677 0.992188 27.2396 0.882812C25.4896 0.5 24.0677 0.5 22.7005 0.5C17.013 0.5 13.5677 3.5625 11.0521 7.5H5.47397C4.59897 7.55469 3.55991 8.15625 3.12241 8.97656L0.442719 14.3906C0.388031 14.5547 0.333344 14.7734 0.333344 14.9375C0.333344 15.7031 0.880219 16.25 1.64584 16.25H6.67709L6.13022 17.4531C5.58334 18.4922 6.34897 19.3672 6.45834 19.4766L9.35678 22.375C10.2318 23.25 11.2162 22.8125 11.3802 22.7031L12.5287 22.1562V27.1875C12.5287 27.9531 13.1302 28.5 13.8412 28.5C14.0599 28.5 14.2787 28.4453 14.4427 28.3906L19.8568 25.7109C20.6224 25.2734 21.2787 24.2344 21.2787 23.3594V17.7812C25.2708 15.2109 28.2787 11.8203 28.2787 6.13281C28.3333 4.76562 28.3333 3.34375 27.9505 1.59375ZM19.9115 15.5391C17.888 16.5781 13.2943 18.875 10.7787 20.0781L8.75522 18.0547C9.95834 15.5391 12.2552 10.9453 13.2396 8.92188C15.8646 4.875 18.6537 3.125 22.7005 3.125C23.6849 3.125 24.5599 3.125 25.5443 3.28906C25.7083 4.32812 25.7083 5.20312 25.6537 6.13281C25.6537 10.125 23.9583 12.9688 19.9115 15.5391Z" fill="#00BFF8"/>
</svg>
