<svg width="125" height="86" viewBox="0 0 125 86" fill="none" xmlns="http://www.w3.org/2000/svg">
<path fill-rule="evenodd" clip-rule="evenodd" d="M32.1661 65.919C44.9458 69.9879 61.2971 71.7587 77.0109 66.5592C97.3768 59.8203 116.107 41.5678 124.652 3.00915C124.926 1.77536 124.147 0.553524 122.913 0.2801C121.679 0.0066719 120.458 0.785202 120.184 2.01899C111.904 39.3827 94.0731 56.0931 75.5733 62.2145C59.1968 67.6333 41.8577 64.9047 29.2886 60.0613C34.757 59.5855 39.2751 58.1476 42.8134 55.7488C48.3316 52.0065 49.534 47.1203 49.7943 45.1018L49.8054 45.0163C49.9344 43.9397 49.1704 42.9634 48.0978 42.8349C47.0291 42.7069 46.0593 43.4636 45.9216 44.5312C45.9193 44.5416 45.9183 44.5535 45.9171 44.5662C45.9159 44.5793 45.9146 44.5933 45.9119 44.607C45.7225 46.0752 44.8253 49.6504 40.6219 52.5007C35.5582 55.932 24.8922 58.787 2.82762 52.8888C1.80706 52.6168 0.752356 53.2063 0.44762 54.2227C0.157994 55.2291 0.705237 56.31 1.70781 56.6449C5.11746 57.7766 8.14076 58.7062 10.8436 59.5352L10.8468 59.5362C26.3167 64.2849 30.4771 65.562 36.9192 83.8857C37.2769 84.9065 38.3937 85.4419 39.415 85.0814C40.4318 84.7242 40.9683 83.6092 40.6094 82.5824C37.7885 74.5577 35.233 69.4596 32.1661 65.919Z" fill="white"/>
</svg>
