<svg width="134" height="58" viewBox="0 0 134 58" fill="none" xmlns="http://www.w3.org/2000/svg">
<path fill-rule="evenodd" clip-rule="evenodd" d="M113.009 29.3233C104.862 18.6688 92.4724 7.85273 76.613 3.1158C56.0584 -3.0235 30.2508 1.21253 1.16326 27.9277C0.232523 28.7826 0.170985 30.23 1.02581 31.1608C1.88064 32.0915 3.32812 32.1531 4.25886 31.2982C32.445 5.41092 56.6321 1.92399 75.3033 7.50074C91.8315 12.4374 104.483 24.6044 112.013 35.7731C107.257 33.0315 102.73 31.6226 98.4557 31.5627C91.7889 31.4703 88.0049 34.7872 86.6355 36.2928L86.5775 36.3566C85.8551 37.1653 85.9223 38.4031 86.728 39.1227C87.5308 39.8397 88.7591 39.7748 89.4834 38.9785C89.4912 38.9713 89.4989 38.9621 89.5071 38.9524C89.5157 38.9423 89.5247 38.9316 89.5348 38.9219C90.5309 37.8268 93.3139 35.4097 98.3921 35.4805C104.508 35.5676 114.887 39.3356 129.597 56.8072C130.278 57.6146 131.48 57.7354 132.312 57.0767C133.126 56.4175 133.296 55.2181 132.666 54.3694C130.519 51.489 128.573 48.9954 126.832 46.7679L126.83 46.7652C116.868 34.0129 114.189 30.5833 119.402 11.8727C119.693 10.8311 119.084 9.75253 118.04 9.46323C117.002 9.17366 115.924 9.78047 115.63 10.8278C113.347 19.0216 112.522 24.6644 113.009 29.3233Z" fill="white"/>
</svg>
