<svg width="23" height="19" viewBox="0 0 23 19" fill="none" xmlns="http://www.w3.org/2000/svg">
<path d="M11.5312 0.25H10.9688C10.6523 0.25 10.4062 0.53125 10.4062 0.8125V17.6875C10.4062 18.0039 10.6523 18.25 10.9688 18.25H11.5312C11.8125 18.25 12.0938 18.0039 12.0938 17.6875V0.8125C12.0938 0.53125 11.8125 0.25 11.5312 0.25ZM8.15625 3.625H7.59375C7.27734 3.625 7.03125 3.90625 7.03125 4.1875V14.3125C7.03125 14.6289 7.27734 14.875 7.59375 14.875H8.15625C8.4375 14.875 8.71875 14.6289 8.71875 14.3125V4.1875C8.71875 3.90625 8.4375 3.625 8.15625 3.625ZM14.9062 4.75H14.3438C14.0273 4.75 13.7812 5.03125 13.7812 5.3125V13.1875C13.7812 13.5039 14.0273 13.75 14.3438 13.75H14.9062C15.1875 13.75 15.4688 13.5039 15.4688 13.1875V5.3125C15.4688 5.03125 15.1875 4.75 14.9062 4.75ZM18.2812 2.5H17.7188C17.4023 2.5 17.1562 2.78125 17.1562 3.0625V15.4375C17.1562 15.7539 17.4023 16 17.7188 16H18.2812C18.5625 16 18.8438 15.7539 18.8438 15.4375V3.0625C18.8438 2.78125 18.5625 2.5 18.2812 2.5ZM4.78125 7H4.21875C3.90234 7 3.65625 7.28125 3.65625 7.5625V10.9375C3.65625 11.2539 3.90234 11.5 4.21875 11.5H4.78125C5.0625 11.5 5.34375 11.2539 5.34375 10.9375V7.5625C5.34375 7.28125 5.0625 7 4.78125 7ZM1.40625 8.125H0.84375C0.527344 8.125 0.28125 8.40625 0.28125 8.6875V9.8125C0.28125 10.1289 0.527344 10.375 0.84375 10.375H1.40625C1.6875 10.375 1.96875 10.1289 1.96875 9.8125V8.6875C1.96875 8.40625 1.6875 8.125 1.40625 8.125ZM21.6562 8.125H21.0938C20.7773 8.125 20.5312 8.40625 20.5312 8.6875V9.8125C20.5312 10.1289 20.7773 10.375 21.0938 10.375H21.6562C21.9375 10.375 22.2188 10.1289 22.2188 9.8125V8.6875C22.2188 8.40625 21.9375 8.125 21.6562 8.125Z" fill="#7748EF"/>
</svg>
